<?xml version="1.0" encoding="utf-8"?>
<!-- Generator: Adobe Illustrator 25.4.1, SVG Export Plug-In . SVG Version: 6.00 Build 0)  -->
<svg version="1.1" id="Layer_1" xmlns="http://www.w3.org/2000/svg" xmlns:xlink="http://www.w3.org/1999/xlink" x="0px" y="0px"
	 viewBox="0 0 369 225" style="enable-background:new 0 0 369 225;" xml:space="preserve">
<g>
	<rect x="0.2" y="0" style="fill:#007F7F;" width="369" height="225"/>
	<path d="M60.9,47.6l30.8,130.2h25.7l22.9-102.4l20.5,102.4h25.1l34.6-130.2h-24l-21.9,103l-20.5-103h-24.6
		c-7.6,34.5-15.2,69-22.8,103.4c-6.8-34.5-13.6-69-20.4-103.4H60.9z"/>
	<path d="M215.3,112.8c0-89.3,93.1-60.1,93.1-60.1l-5,18.5c0,0-68.2-22-68.2,41.7c0,63.5,68.2,40.9,68.2,40.9l3.6,18.5
		C307,172.4,215.3,199.9,215.3,112.8z"/>
	<polygon id="L" style="fill:#FFFFFF;" points="241.1,47.6 213.1,156.9 261.7,156.9 256.7,177.8 185.9,177.8 220.6,47.6 	"/>
</g>
</svg>
