<svg id="Calque_1" data-name="Calque 1" xmlns="http://www.w3.org/2000/svg" viewBox="0 0 342.05 357.3"><defs><style>.cls-1{fill:#7f7f7f;}.cls-2{fill:#b2b2b2;}.cls-3,.cls-4{isolation:isolate;}.cls-3{font-size:14px;font-family:Arimo-Regular, Arimo;}.cls-4{font-size:12px;fill:#fff;font-family:Arimo-Bold, Arimo;font-weight:700;}</style></defs><title>profil_professionnel</title><path class="cls-1" d="M94.3,358.3c9.8,0,14.7-5.1,14.7-15.2V322.3H79.5v20.8C79.6,353.2,84.5,358.3,94.3,358.3Z" transform="translate(-50 -1)"/><path class="cls-1" d="M139,358.3c9.8,0,14.7-5.1,14.7-15.2V322.3H124.2v20.8C124.2,353.2,129.1,358.3,139,358.3Z" transform="translate(-50 -1)"/><path class="cls-2" d="M55.8,209.7a11.71,11.71,0,0,0,11.2,0c3.6-1.9,5.4-5,5.4-9.4V179.8H50v20.5A9.65,9.65,0,0,0,55.8,209.7Z" transform="translate(-50 -1)"/><path class="cls-2" d="M166.6,209.7a11.71,11.71,0,0,0,11.2,0c3.6-1.9,5.4-5,5.4-9.4V179.8H160.8v20.5A9.65,9.65,0,0,0,166.6,209.7Z" transform="translate(-50 -1)"/><polygon class="cls-1" points="29.6 188.9 29.6 332 59.1 332 59.1 216.6 74.2 216.6 74.2 332 103.7 332 103.7 188.9 29.6 188.9"/><path class="cls-2" d="M173.5,87.1q-9.75-8.4-27-8.4h-59c-11.1,0-20.1,2.5-27,7.6S50,99.4,50,110.1v79.8H72.3V117.7h7.2v72.2h74.2V117.7h7.2v72.2h22.3v-79C183.2,100.7,180,92.7,173.5,87.1Z" transform="translate(-50 -1)"/><path class="cls-2" d="M116.6,1A28.83,28.83,0,0,0,95,10.5a32.1,32.1,0,0,0-9,22.9,32.1,32.1,0,0,0,9,22.9,29.31,29.31,0,0,0,43.2,0,32.71,32.71,0,0,0,9-23.3,31.9,31.9,0,0,0-9-22.6A29.3,29.3,0,0,0,116.6,1Z" transform="translate(-50 -1)"/><text class="cls-3" transform="translate(244.77 142.38)">Intégrateur web</text><text class="cls-3" transform="translate(244.77 222.07)">Programmeur</text><circle class="cls-2" cx="204" cy="138.1" r="26.3"/><text class="cls-4" transform="translate(191.99 140.92)">50%</text><circle class="cls-1" cx="203.3" cy="218.2" r="26.3"/><text class="cls-4" transform="translate(191.32 221.02)">50%</text></svg>